<?xml version="1.0" encoding="UTF-8"?>
<svg id="_レイヤー_1" xmlns="http://www.w3.org/2000/svg" version="1.1" viewBox="0 0 1133.8582764 85.0393701">
  <!-- Generator: Adobe Illustrator 29.5.0, SVG Export Plug-In . SVG Version: 2.1.0 Build 137)  -->
  <defs>
    <style>
      .st0 {
        fill: #f9f9ff;
        stroke: #1b1c82;
        stroke-linejoin: round;
        stroke-width: 1.5px;
      }
    </style>
  </defs>
  <polygon class="st0" points="-13.0047913 28.7319787 -37.1212921 38.5854428 -61.2377892 28.7319787 -37.1212921 18.8785122 -13.0047913 28.7319787"/>
  <polygon class="st0" points="-37.1212921 38.5854428 -36.9906311 64.1282494 -61.107132 54.2747815 -61.2377892 28.7319787 -37.1212921 38.5854428"/>
  <polygon class="st0" points="-36.8599739 38.5854428 -36.9906311 64.1282494 -12.8741322 54.2747815 -12.743474 28.7319787 -36.8599739 38.5854428"/>
  <polygon class="st0" points="-36.9906311 64.2527764 -61.107132 74.1062424 -85.2236328 64.2527764 -61.107132 54.3993085 -36.9906311 64.2527764"/>
  <polygon class="st0" points="-61.107132 74.1062424 -60.9764748 99.6490433 -85.0929718 89.7955735 -85.2236328 64.2527764 -61.107132 74.1062424"/>
  <polygon class="st0" points="-60.8458138 74.1062424 -60.9764748 99.6490433 -36.8599739 89.7955735 -36.7293167 64.2527764 -60.8458138 74.1062424"/>
  <polygon class="st0" points="11.2423677 -6.6642902 -12.8741322 3.1891739 -36.9906311 -6.6642902 -12.8741322 -16.5177543 11.2423677 -6.6642902"/>
  <polygon class="st0" points="-12.8741322 3.1891739 -12.743474 28.7319787 -36.8599739 18.8785122 -36.9906311 -6.6642902 -12.8741322 3.1891739"/>
  <polygon class="st0" points="-12.6128159 3.1891739 -12.743474 28.7319787 11.3730259 18.8785122 11.503684 -6.6642902 -12.6128159 3.1891739"/>
  <polygon class="st0" points="35.0975494 28.7319787 10.9810505 38.5854428 -13.1354494 28.7319787 10.9810505 18.8785122 35.0975494 28.7319787"/>
  <polygon class="st0" points="10.9810505 38.5854428 11.1117086 64.1282494 -13.0047913 54.2747815 -13.1354494 28.7319787 10.9810505 38.5854428"/>
  <polygon class="st0" points="11.2423677 38.5854428 11.1117086 64.1282494 35.2282104 54.2747815 35.3588676 28.7319787 11.2423677 38.5854428"/>
  <polygon class="st0" points="11.1117086 64.2527764 -13.0047913 74.1062424 -37.1212921 64.2527764 -13.0047913 54.3993085 11.1117086 64.2527764"/>
  <polygon class="st0" points="-13.0047913 74.1062424 -12.8741322 99.6490433 -36.9906311 89.7955735 -37.1212921 64.2527764 -13.0047913 74.1062424"/>
  <polygon class="st0" points="-12.743474 74.1062424 -12.8741322 99.6490433 11.2423677 89.7955735 11.3730259 64.2527764 -12.743474 74.1062424"/>
  <polygon class="st0" points="59.3447075 -6.6642902 35.2282104 3.1891739 11.1117086 -6.6642902 35.2282104 -16.5177543 59.3447075 -6.6642902"/>
  <polygon class="st0" points="35.2282104 3.1891739 35.3588676 28.7319787 11.2423677 18.8785122 11.1117086 -6.6642902 35.2282104 3.1891739"/>
  <polygon class="st0" points="35.4895248 3.1891739 35.3588676 28.7319787 59.4753685 18.8785122 59.6060257 -6.6642902 35.4895248 3.1891739"/>
  <polygon class="st0" points="83.1998901 28.7319787 59.0833931 38.5854428 34.9668922 28.7319787 59.0833931 18.8785122 83.1998901 28.7319787"/>
  <polygon class="st0" points="59.0833931 38.5854428 59.2140503 64.1282494 35.0975494 54.2747815 34.9668922 28.7319787 59.0833931 38.5854428"/>
  <polygon class="st0" points="59.3447075 38.5854428 59.2140503 64.1282494 83.3305511 54.2747815 83.4612122 28.7319787 59.3447075 38.5854428"/>
  <polygon class="st0" points="59.2140503 64.2527764 35.0975494 74.1062424 10.9810505 64.2527764 35.0975494 54.3993085 59.2140503 64.2527764"/>
  <polygon class="st0" points="35.0975494 74.1062424 35.2282104 99.6490433 11.1117086 89.7955735 10.9810505 64.2527764 35.0975494 74.1062424"/>
  <polygon class="st0" points="35.3588676 74.1062424 35.2282104 99.6490433 59.3447075 89.7955735 59.4753685 64.2527764 35.3588676 74.1062424"/>
  <polygon class="st0" points="107.447052 -6.6642902 83.3305511 3.1891739 59.2140503 -6.6642902 83.3305511 -16.5177543 107.447052 -6.6642902"/>
  <polygon class="st0" points="83.3305511 3.1891739 83.4612122 28.7319787 59.3447075 18.8785122 59.2140503 -6.6642902 83.3305511 3.1891739"/>
  <polygon class="st0" points="83.5918655 3.1891739 83.4612122 28.7319787 107.5777054 18.8785122 107.7083664 -6.6642902 83.5918655 3.1891739"/>
  <polygon class="st0" points="131.3022308 28.7319787 107.18573 38.5854428 83.0692368 28.7319787 107.18573 18.8785122 131.3022308 28.7319787"/>
  <polygon class="st0" points="107.18573 38.5854428 107.316391 64.1282494 83.1998901 54.2747815 83.0692368 28.7319787 107.18573 38.5854428"/>
  <polygon class="st0" points="107.447052 38.5854428 107.316391 64.1282494 131.4328918 54.2747815 131.5635529 28.7319787 107.447052 38.5854428"/>
  <polygon class="st0" points="107.316391 64.2527764 83.1998901 74.1062424 59.0833931 64.2527764 83.1998901 54.3993085 107.316391 64.2527764"/>
  <polygon class="st0" points="83.1998901 74.1062424 83.3305511 99.6490433 59.2140503 89.7955735 59.0833931 64.2527764 83.1998901 74.1062424"/>
  <polygon class="st0" points="83.4612122 74.1062424 83.3305511 99.6490433 107.447052 89.7955735 107.5777054 64.2527764 83.4612122 74.1062424"/>
  <polygon class="st0" points="155.5493927 -6.6642902 131.4328918 3.1891739 107.316391 -6.6642902 131.4328918 -16.5177543 155.5493927 -6.6642902"/>
  <polygon class="st0" points="131.4328918 3.1891739 131.5635529 28.7319787 107.447052 18.8785122 107.316391 -6.6642902 131.4328918 3.1891739"/>
  <polygon class="st0" points="131.6942139 3.1891739 131.5635529 28.7319787 155.6800537 18.8785122 155.8107147 -6.6642902 131.6942139 3.1891739"/>
  <polygon class="st0" points="179.6005554 28.7319787 155.4840546 38.5854428 131.367569 28.7319787 155.4840546 18.8785122 179.6005554 28.7319787"/>
  <polygon class="st0" points="155.4840546 38.5854428 155.6147156 64.1282494 131.4982147 54.2747815 131.367569 28.7319787 155.4840546 38.5854428"/>
  <polygon class="st0" points="155.7453766 38.5854428 155.6147156 64.1282494 179.7312164 54.2747815 179.8618774 28.7319787 155.7453766 38.5854428"/>
  <polygon class="st0" points="155.6147156 64.2527764 131.4982147 74.1062424 107.3817215 64.2527764 131.4982147 54.3993085 155.6147156 64.2527764"/>
  <polygon class="st0" points="131.4982147 74.1062424 131.6288757 99.6490433 107.5123825 89.7955735 107.3817215 64.2527764 131.4982147 74.1062424"/>
  <polygon class="st0" points="131.7595367 74.1062424 131.6288757 99.6490433 155.7453766 89.7955735 155.8760376 64.2527764 131.7595367 74.1062424"/>
  <polygon class="st0" points="203.8477173 -6.6642902 179.7312164 3.1891739 155.6147156 -6.6642902 179.7312164 -16.5177543 203.8477173 -6.6642902"/>
  <polygon class="st0" points="179.7312164 3.1891739 179.8618774 28.7319787 155.7453766 18.8785122 155.6147156 -6.6642902 179.7312164 3.1891739"/>
  <polygon class="st0" points="179.9925385 3.1891739 179.8618774 28.7319787 203.9783783 18.8785122 204.1090393 -6.6642902 179.9925385 3.1891739"/>
  <polygon class="st0" points="227.7028961 28.7319787 203.5864105 38.5854428 179.4699097 28.7319787 203.5864105 18.8785122 227.7028961 28.7319787"/>
  <polygon class="st0" points="203.5864105 38.5854428 203.7170563 64.1282494 179.6005554 54.2747815 179.4699097 28.7319787 203.5864105 38.5854428"/>
  <polygon class="st0" points="203.8477173 38.5854428 203.7170563 64.1282494 227.8335571 54.2747815 227.9642181 28.7319787 203.8477173 38.5854428"/>
  <polygon class="st0" points="203.7170563 64.2527764 179.6005554 74.1062424 155.4840546 64.2527764 179.6005554 54.3993085 203.7170563 64.2527764"/>
  <polygon class="st0" points="179.6005554 74.1062424 179.7312164 99.6490433 155.6147156 89.7955735 155.4840546 64.2527764 179.6005554 74.1062424"/>
  <polygon class="st0" points="179.8618774 74.1062424 179.7312164 99.6490433 203.8477173 89.7955735 203.9783783 64.2527764 179.8618774 74.1062424"/>
  <polygon class="st0" points="251.950058 -6.6642902 227.8335571 3.1891739 203.7170563 -6.6642902 227.8335571 -16.5177543 251.950058 -6.6642902"/>
  <polygon class="st0" points="227.8335571 3.1891739 227.9642181 28.7319787 203.8477173 18.8785122 203.7170563 -6.6642902 227.8335571 3.1891739"/>
  <polygon class="st0" points="228.0948792 3.1891739 227.9642181 28.7319787 252.080719 18.8785122 252.21138 -6.6642902 228.0948792 3.1891739"/>
  <polygon class="st0" points="275.8052368 28.7319787 251.6887512 38.5854428 227.5722504 28.7319787 251.6887512 18.8785122 275.8052368 28.7319787"/>
  <polygon class="st0" points="251.6887512 38.5854428 251.819397 64.1282494 227.7028961 54.2747815 227.5722504 28.7319787 251.6887512 38.5854428"/>
  <polygon class="st0" points="251.950058 38.5854428 251.819397 64.1282494 275.9359131 54.2747815 276.0665588 28.7319787 251.950058 38.5854428"/>
  <polygon class="st0" points="251.819397 64.2527764 227.7028961 74.1062424 203.5864105 64.2527764 227.7028961 54.3993085 251.819397 64.2527764"/>
  <polygon class="st0" points="227.7028961 74.1062424 227.8335571 99.6490433 203.7170563 89.7955735 203.5864105 64.2527764 227.7028961 74.1062424"/>
  <polygon class="st0" points="227.9642181 74.1062424 227.8335571 99.6490433 251.950058 89.7955735 252.080719 64.2527764 227.9642181 74.1062424"/>
  <polygon class="st0" points="300.0523987 -6.6642902 275.9359131 3.1891739 251.819397 -6.6642902 275.9359131 -16.5177543 300.0523987 -6.6642902"/>
  <polygon class="st0" points="275.9359131 3.1891739 276.0665588 28.7319787 251.950058 18.8785122 251.819397 -6.6642902 275.9359131 3.1891739"/>
  <polygon class="st0" points="276.1972046 3.1891739 276.0665588 28.7319787 300.183075 18.8785122 300.3137207 -6.6642902 276.1972046 3.1891739"/>
  <polygon class="st0" points="323.9075928 28.7319787 299.7910767 38.5854428 275.6745911 28.7319787 299.7910767 18.8785122 323.9075928 28.7319787"/>
  <polygon class="st0" points="299.7910767 38.5854428 299.9217529 64.1282494 275.8052368 54.2747815 275.6745911 28.7319787 299.7910767 38.5854428"/>
  <polygon class="st0" points="300.0523987 38.5854428 299.9217529 64.1282494 324.0382385 54.2747815 324.1689148 28.7319787 300.0523987 38.5854428"/>
  <polygon class="st0" points="299.9217529 64.2527764 275.8052368 74.1062424 251.6887512 64.2527764 275.8052368 54.3993085 299.9217529 64.2527764"/>
  <polygon class="st0" points="275.8052368 74.1062424 275.9359131 99.6490433 251.819397 89.7955735 251.6887512 64.2527764 275.8052368 74.1062424"/>
  <polygon class="st0" points="276.0665588 74.1062424 275.9359131 99.6490433 300.0523987 89.7955735 300.183075 64.2527764 276.0665588 74.1062424"/>
  <polygon class="st0" points="348.1547546 -6.6642902 324.0382385 3.1891739 299.9217529 -6.6642902 324.0382385 -16.5177543 348.1547546 -6.6642902"/>
  <polygon class="st0" points="324.0382385 3.1891739 324.1689148 28.7319787 300.0523987 18.8785122 299.9217529 -6.6642902 324.0382385 3.1891739"/>
  <polygon class="st0" points="324.2995605 3.1891739 324.1689148 28.7319787 348.2854004 18.8785122 348.4160461 -6.6642902 324.2995605 3.1891739"/>
  <polygon class="st0" points="372.2712402 28.7319787 348.1547546 38.5854428 324.0382385 28.7319787 348.1547546 18.8785122 372.2712402 28.7319787"/>
  <polygon class="st0" points="348.1547546 38.5854428 348.2854004 64.1282494 324.1689148 54.2747815 324.0382385 28.7319787 348.1547546 38.5854428"/>
  <polygon class="st0" points="348.4160461 38.5854428 348.2854004 64.1282494 372.4019165 54.2747815 372.5325623 28.7319787 348.4160461 38.5854428"/>
  <polygon class="st0" points="348.2854004 64.2527764 324.1689148 74.1062424 300.0523987 64.2527764 324.1689148 54.3993085 348.2854004 64.2527764"/>
  <polygon class="st0" points="324.1689148 74.1062424 324.2995605 99.6490433 300.183075 89.7955735 300.0523987 64.2527764 324.1689148 74.1062424"/>
  <polygon class="st0" points="324.4302063 74.1062424 324.2995605 99.6490433 348.4160461 89.7955735 348.5467224 64.2527764 324.4302063 74.1062424"/>
  <polygon class="st0" points="396.5184021 -6.6642902 372.4019165 3.1891739 348.2854004 -6.6642902 372.4019165 -16.5177543 396.5184021 -6.6642902"/>
  <polygon class="st0" points="372.4019165 3.1891739 372.5325623 28.7319787 348.4160461 18.8785122 348.2854004 -6.6642902 372.4019165 3.1891739"/>
  <polygon class="st0" points="372.663208 3.1891739 372.5325623 28.7319787 396.6490479 18.8785122 396.7797241 -6.6642902 372.663208 3.1891739"/>
  <polygon class="st0" points="420.3735962 28.7319787 396.2570801 38.5854428 372.1405945 28.7319787 396.2570801 18.8785122 420.3735962 28.7319787"/>
  <polygon class="st0" points="396.2570801 38.5854428 396.3877563 64.1282494 372.2712402 54.2747815 372.1405945 28.7319787 396.2570801 38.5854428"/>
  <polygon class="st0" points="396.5184021 38.5854428 396.3877563 64.1282494 420.5042419 54.2747815 420.6348877 28.7319787 396.5184021 38.5854428"/>
  <polygon class="st0" points="396.3877563 64.2527764 372.2712402 74.1062424 348.1547546 64.2527764 372.2712402 54.3993085 396.3877563 64.2527764"/>
  <polygon class="st0" points="372.2712402 74.1062424 372.4019165 99.6490433 348.2854004 89.7955735 348.1547546 64.2527764 372.2712402 74.1062424"/>
  <polygon class="st0" points="372.5325623 74.1062424 372.4019165 99.6490433 396.5184021 89.7955735 396.6490479 64.2527764 372.5325623 74.1062424"/>
  <polygon class="st0" points="444.6207581 -6.6642902 420.5042419 3.1891739 396.3877563 -6.6642902 420.5042419 -16.5177543 444.6207581 -6.6642902"/>
  <polygon class="st0" points="420.5042419 3.1891739 420.6348877 28.7319787 396.5184021 18.8785122 396.3877563 -6.6642902 420.5042419 3.1891739"/>
  <polygon class="st0" points="420.765564 3.1891739 420.6348877 28.7319787 444.7514038 18.8785122 444.8820496 -6.6642902 420.765564 3.1891739"/>
  <polygon class="st0" points="468.4759216 28.7319787 444.359436 38.5854428 420.2429199 28.7319787 444.359436 18.8785122 468.4759216 28.7319787"/>
  <polygon class="st0" points="444.359436 38.5854428 444.4900818 64.1282494 420.3735962 54.2747815 420.2429199 28.7319787 444.359436 38.5854428"/>
  <polygon class="st0" points="444.6207581 38.5854428 444.4900818 64.1282494 468.6065979 54.2747815 468.7372437 28.7319787 444.6207581 38.5854428"/>
  <polygon class="st0" points="444.4900818 64.2527764 420.3735962 74.1062424 396.2570801 64.2527764 420.3735962 54.3993085 444.4900818 64.2527764"/>
  <polygon class="st0" points="420.3735962 74.1062424 420.5042419 99.6490433 396.3877563 89.7955735 396.2570801 64.2527764 420.3735962 74.1062424"/>
  <polygon class="st0" points="420.6348877 74.1062424 420.5042419 99.6490433 444.6207581 89.7955735 444.7514038 64.2527764 420.6348877 74.1062424"/>
  <polygon class="st0" points="492.7230835 -6.6642902 468.6065979 3.1891739 444.4900818 -6.6642902 468.6065979 -16.5177543 492.7230835 -6.6642902"/>
  <polygon class="st0" points="468.6065979 3.1891739 468.7372437 28.7319787 444.6207581 18.8785122 444.4900818 -6.6642902 468.6065979 3.1891739"/>
  <polygon class="st0" points="468.8678894 3.1891739 468.7372437 28.7319787 492.8537292 18.8785122 492.9844055 -6.6642902 468.8678894 3.1891739"/>
  <polygon class="st0" points="516.5782471 28.7319787 492.4617615 38.5854428 468.3452759 28.7319787 492.4617615 18.8785122 516.5782471 28.7319787"/>
  <polygon class="st0" points="492.4617615 38.5854428 492.5924377 64.1282494 468.4759216 54.2747815 468.3452759 28.7319787 492.4617615 38.5854428"/>
  <polygon class="st0" points="492.7230835 38.5854428 492.5924377 64.1282494 516.7089233 54.2747815 516.8395996 28.7319787 492.7230835 38.5854428"/>
  <polygon class="st0" points="492.5924377 64.2527764 468.4759216 74.1062424 444.359436 64.2527764 468.4759216 54.3993085 492.5924377 64.2527764"/>
  <polygon class="st0" points="468.4759216 74.1062424 468.6065979 99.6490433 444.4900818 89.7955735 444.359436 64.2527764 468.4759216 74.1062424"/>
  <polygon class="st0" points="468.7372437 74.1062424 468.6065979 99.6490433 492.7230835 89.7955735 492.8537292 64.2527764 468.7372437 74.1062424"/>
  <polygon class="st0" points="540.8254395 -6.6642902 516.7089233 3.1891739 492.5924377 -6.6642902 516.7089233 -16.5177543 540.8254395 -6.6642902"/>
  <polygon class="st0" points="516.7089233 3.1891739 516.8395996 28.7319787 492.7230835 18.8785122 492.5924377 -6.6642902 516.7089233 3.1891739"/>
  <polygon class="st0" points="516.9702148 3.1891739 516.8395996 28.7319787 540.9560547 18.8785122 541.086731 -6.6642902 516.9702148 3.1891739"/>
  <polygon class="st0" points="564.8765869 28.7319787 540.7600708 38.5854428 516.6436157 28.7319787 540.7600708 18.8785122 564.8765869 28.7319787"/>
  <polygon class="st0" points="540.7600708 38.5854428 540.8907471 64.1282494 516.774231 54.2747815 516.6436157 28.7319787 540.7600708 38.5854428"/>
  <polygon class="st0" points="541.0214233 38.5854428 540.8907471 64.1282494 565.0072632 54.2747815 565.1379395 28.7319787 541.0214233 38.5854428"/>
  <polygon class="st0" points="540.8907471 64.2527764 516.774231 74.1062424 492.6577454 64.2527764 516.774231 54.3993085 540.8907471 64.2527764"/>
  <polygon class="st0" points="516.774231 74.1062424 516.9049072 99.6490433 492.7884216 89.7955735 492.6577454 64.2527764 516.774231 74.1062424"/>
  <polygon class="st0" points="517.0355835 74.1062424 516.9049072 99.6490433 541.0214233 89.7955735 541.1520996 64.2527764 517.0355835 74.1062424"/>
  <polygon class="st0" points="589.1237793 -6.6642902 565.0072632 3.1891739 540.8907471 -6.6642902 565.0072632 -16.5177543 589.1237793 -6.6642902"/>
  <polygon class="st0" points="565.0072632 3.1891739 565.1379395 28.7319787 541.0214233 18.8785122 540.8907471 -6.6642902 565.0072632 3.1891739"/>
  <polygon class="st0" points="565.2685547 3.1891739 565.1379395 28.7319787 589.2543945 18.8785122 589.3850708 -6.6642902 565.2685547 3.1891739"/>
  <polygon class="st0" points="612.9789429 28.7319787 588.8624268 38.5854428 564.7459106 28.7319787 588.8624268 18.8785122 612.9789429 28.7319787"/>
  <polygon class="st0" points="588.8624268 38.5854428 588.993103 64.1282494 564.8765869 54.2747815 564.7459106 28.7319787 588.8624268 38.5854428"/>
  <polygon class="st0" points="589.1237793 38.5854428 588.993103 64.1282494 613.1096191 54.2747815 613.2402344 28.7319787 589.1237793 38.5854428"/>
  <polygon class="st0" points="588.993103 64.2527764 564.8765869 74.1062424 540.7600708 64.2527764 564.8765869 54.3993085 588.993103 64.2527764"/>
  <polygon class="st0" points="564.8765869 74.1062424 565.0072632 99.6490433 540.8907471 89.7955735 540.7600708 64.2527764 564.8765869 74.1062424"/>
  <polygon class="st0" points="565.1379395 74.1062424 565.0072632 99.6490433 589.1237793 89.7955735 589.2543945 64.2527764 565.1379395 74.1062424"/>
  <polygon class="st0" points="637.2260742 -6.6642902 613.1096191 3.1891739 588.993103 -6.6642902 613.1096191 -16.5177543 637.2260742 -6.6642902"/>
  <polygon class="st0" points="613.1096191 3.1891739 613.2402344 28.7319787 589.1237793 18.8785122 588.993103 -6.6642902 613.1096191 3.1891739"/>
  <polygon class="st0" points="613.3709106 3.1891739 613.2402344 28.7319787 637.3567505 18.8785122 637.4874268 -6.6642902 613.3709106 3.1891739"/>
  <polygon class="st0" points="661.0812988 28.7319787 636.9647827 38.5854428 612.8482666 28.7319787 636.9647827 18.8785122 661.0812988 28.7319787"/>
  <polygon class="st0" points="636.9647827 38.5854428 637.095459 64.1282494 612.9789429 54.2747815 612.8482666 28.7319787 636.9647827 38.5854428"/>
  <polygon class="st0" points="637.2260742 38.5854428 637.095459 64.1282494 661.2119141 54.2747815 661.3425903 28.7319787 637.2260742 38.5854428"/>
  <polygon class="st0" points="637.095459 64.2527764 612.9789429 74.1062424 588.8624268 64.2527764 612.9789429 54.3993085 637.095459 64.2527764"/>
  <polygon class="st0" points="612.9789429 74.1062424 613.1096191 99.6490433 588.993103 89.7955735 588.8624268 64.2527764 612.9789429 74.1062424"/>
  <polygon class="st0" points="613.2402344 74.1062424 613.1096191 99.6490433 637.2260742 89.7955735 637.3567505 64.2527764 613.2402344 74.1062424"/>
  <polygon class="st0" points="685.3284302 -6.6642902 661.2119141 3.1891739 637.095459 -6.6642902 661.2119141 -16.5177543 685.3284302 -6.6642902"/>
  <polygon class="st0" points="661.2119141 3.1891739 661.3425903 28.7319787 637.2260742 18.8785122 637.095459 -6.6642902 661.2119141 3.1891739"/>
  <polygon class="st0" points="661.4732666 3.1891739 661.3425903 28.7319787 685.4591064 18.8785122 685.5897827 -6.6642902 661.4732666 3.1891739"/>
  <polygon class="st0" points="709.1835938 28.7319787 685.0671387 38.5854428 660.9506226 28.7319787 685.0671387 18.8785122 709.1835938 28.7319787"/>
  <polygon class="st0" points="685.0671387 38.5854428 685.1977539 64.1282494 661.0812988 54.2747815 660.9506226 28.7319787 685.0671387 38.5854428"/>
  <polygon class="st0" points="685.3284302 38.5854428 685.1977539 64.1282494 709.31427 54.2747815 709.4449463 28.7319787 685.3284302 38.5854428"/>
  <polygon class="st0" points="685.1977539 64.2527764 661.0812988 74.1062424 636.9647827 64.2527764 661.0812988 54.3993085 685.1977539 64.2527764"/>
  <polygon class="st0" points="661.0812988 74.1062424 661.2119141 99.6490433 637.095459 89.7955735 636.9647827 64.2527764 661.0812988 74.1062424"/>
  <polygon class="st0" points="661.3425903 74.1062424 661.2119141 99.6490433 685.3284302 89.7955735 685.4591064 64.2527764 661.3425903 74.1062424"/>
  <polygon class="st0" points="733.4307861 -6.6642902 709.31427 3.1891739 685.1977539 -6.6642902 709.31427 -16.5177543 733.4307861 -6.6642902"/>
  <polygon class="st0" points="709.31427 3.1891739 709.4449463 28.7319787 685.3284302 18.8785122 685.1977539 -6.6642902 709.31427 3.1891739"/>
  <polygon class="st0" points="709.5756226 3.1891739 709.4449463 28.7319787 733.5614624 18.8785122 733.6920776 -6.6642902 709.5756226 3.1891739"/>
  <polygon class="st0" points="757.416626 28.7319787 733.3001099 38.5854428 709.1835938 28.7319787 733.3001099 18.8785122 757.416626 28.7319787"/>
  <polygon class="st0" points="733.3001099 38.5854428 733.4307861 64.1282494 709.31427 54.2747815 709.1835938 28.7319787 733.3001099 38.5854428"/>
  <polygon class="st0" points="733.5614624 38.5854428 733.4307861 64.1282494 757.5473022 54.2747815 757.6779175 28.7319787 733.5614624 38.5854428"/>
  <polygon class="st0" points="733.4307861 64.2527764 709.31427 74.1062424 685.1977539 64.2527764 709.31427 54.3993085 733.4307861 64.2527764"/>
  <polygon class="st0" points="709.31427 74.1062424 709.4449463 99.6490433 685.3284302 89.7955735 685.1977539 64.2527764 709.31427 74.1062424"/>
  <polygon class="st0" points="709.5756226 74.1062424 709.4449463 99.6490433 733.5614624 89.7955735 733.6920776 64.2527764 709.5756226 74.1062424"/>
  <polygon class="st0" points="781.6637573 -6.6642902 757.5473022 3.1891739 733.4307861 -6.6642902 757.5473022 -16.5177543 781.6637573 -6.6642902"/>
  <polygon class="st0" points="757.5473022 3.1891739 757.6779175 28.7319787 733.5614624 18.8785122 733.4307861 -6.6642902 757.5473022 3.1891739"/>
  <polygon class="st0" points="757.8085938 3.1891739 757.6779175 28.7319787 781.7944336 18.8785122 781.9251099 -6.6642902 757.8085938 3.1891739"/>
  <polygon class="st0" points="805.5189819 28.7319787 781.4024658 38.5854428 757.2859497 28.7319787 781.4024658 18.8785122 805.5189819 28.7319787"/>
  <polygon class="st0" points="781.4024658 38.5854428 781.5331421 64.1282494 757.416626 54.2747815 757.2859497 28.7319787 781.4024658 38.5854428"/>
  <polygon class="st0" points="781.6637573 38.5854428 781.5331421 64.1282494 805.6495972 54.2747815 805.7802734 28.7319787 781.6637573 38.5854428"/>
  <polygon class="st0" points="781.5331421 64.2527764 757.416626 74.1062424 733.3001099 64.2527764 757.416626 54.3993085 781.5331421 64.2527764"/>
  <polygon class="st0" points="757.416626 74.1062424 757.5473022 99.6490433 733.4307861 89.7955735 733.3001099 64.2527764 757.416626 74.1062424"/>
  <polygon class="st0" points="757.6779175 74.1062424 757.5473022 99.6490433 781.6637573 89.7955735 781.7944336 64.2527764 757.6779175 74.1062424"/>
  <polygon class="st0" points="829.7661133 -6.6642902 805.6495972 3.1891739 781.5331421 -6.6642902 805.6495972 -16.5177543 829.7661133 -6.6642902"/>
  <polygon class="st0" points="805.6495972 3.1891739 805.7802734 28.7319787 781.6637573 18.8785122 781.5331421 -6.6642902 805.6495972 3.1891739"/>
  <polygon class="st0" points="805.9109497 3.1891739 805.7802734 28.7319787 829.8967896 18.8785122 830.0274658 -6.6642902 805.9109497 3.1891739"/>
  <polygon class="st0" points="853.7519531 28.7319787 829.635437 38.5854428 805.5189819 28.7319787 829.635437 18.8785122 853.7519531 28.7319787"/>
  <polygon class="st0" points="829.635437 38.5854428 829.7661133 64.1282494 805.6495972 54.2747815 805.5189819 28.7319787 829.635437 38.5854428"/>
  <polygon class="st0" points="829.8967896 38.5854428 829.7661133 64.1282494 853.8826294 54.2747815 854.0133057 28.7319787 829.8967896 38.5854428"/>
  <polygon class="st0" points="829.7661133 64.2527764 805.6495972 74.1062424 781.5331421 64.2527764 805.6495972 54.3993085 829.7661133 64.2527764"/>
  <polygon class="st0" points="805.6495972 74.1062424 805.7802734 99.6490433 781.6637573 89.7955735 781.5331421 64.2527764 805.6495972 74.1062424"/>
  <polygon class="st0" points="805.9109497 74.1062424 805.7802734 99.6490433 829.8967896 89.7955735 830.0274658 64.2527764 805.9109497 74.1062424"/>
  <polygon class="st0" points="877.9991455 -6.6642902 853.8826294 3.1891739 829.7661133 -6.6642902 853.8826294 -16.5177543 877.9991455 -6.6642902"/>
  <polygon class="st0" points="853.8826294 3.1891739 854.0133057 28.7319787 829.8967896 18.8785122 829.7661133 -6.6642902 853.8826294 3.1891739"/>
  <polygon class="st0" points="854.1439209 3.1891739 854.0133057 28.7319787 878.1297607 18.8785122 878.260437 -6.6642902 854.1439209 3.1891739"/>
  <polygon class="st0" points="901.8543091 28.7319787 877.737793 38.5854428 853.6212769 28.7319787 877.737793 18.8785122 901.8543091 28.7319787"/>
  <polygon class="st0" points="877.737793 38.5854428 877.8684692 64.1282494 853.7519531 54.2747815 853.6212769 28.7319787 877.737793 38.5854428"/>
  <polygon class="st0" points="877.9991455 38.5854428 877.8684692 64.1282494 901.9849854 54.2747815 902.1156006 28.7319787 877.9991455 38.5854428"/>
  <polygon class="st0" points="877.8684692 64.2527764 853.7519531 74.1062424 829.635437 64.2527764 853.7519531 54.3993085 877.8684692 64.2527764"/>
  <polygon class="st0" points="853.7519531 74.1062424 853.8826294 99.6490433 829.7661133 89.7955735 829.635437 64.2527764 853.7519531 74.1062424"/>
  <polygon class="st0" points="854.0133057 74.1062424 853.8826294 99.6490433 877.9991455 89.7955735 878.1297607 64.2527764 854.0133057 74.1062424"/>
  <polygon class="st0" points="926.1014404 -6.6642902 901.9849854 3.1891739 877.8684692 -6.6642902 901.9849854 -16.5177543 926.1014404 -6.6642902"/>
  <polygon class="st0" points="901.9849854 3.1891739 902.1156006 28.7319787 877.9991455 18.8785122 877.8684692 -6.6642902 901.9849854 3.1891739"/>
  <polygon class="st0" points="902.2462769 3.1891739 902.1156006 28.7319787 926.2321167 18.8785122 926.362793 -6.6642902 902.2462769 3.1891739"/>
  <polygon class="st0" points="949.956665 28.7319787 925.8401489 38.5854428 901.7236328 28.7319787 925.8401489 18.8785122 949.956665 28.7319787"/>
  <polygon class="st0" points="925.8401489 38.5854428 925.9708252 64.1282494 901.8543091 54.2747815 901.7236328 28.7319787 925.8401489 38.5854428"/>
  <polygon class="st0" points="926.1014404 38.5854428 925.9708252 64.1282494 950.0872803 54.2747815 950.2179565 28.7319787 926.1014404 38.5854428"/>
  <polygon class="st0" points="925.9708252 64.2527764 901.8543091 74.1062424 877.737793 64.2527764 901.8543091 54.3993085 925.9708252 64.2527764"/>
  <polygon class="st0" points="901.8543091 74.1062424 901.9849854 99.6490433 877.8684692 89.7955735 877.737793 64.2527764 901.8543091 74.1062424"/>
  <polygon class="st0" points="902.1156006 74.1062424 901.9849854 99.6490433 926.1014404 89.7955735 926.2321167 64.2527764 902.1156006 74.1062424"/>
  <polygon class="st0" points="974.2037964 -6.6642902 950.0872803 3.1891739 925.9708252 -6.6642902 950.0872803 -16.5177543 974.2037964 -6.6642902"/>
  <polygon class="st0" points="950.0872803 3.1891739 950.2179565 28.7319787 926.1014404 18.8785122 925.9708252 -6.6642902 950.0872803 3.1891739"/>
  <polygon class="st0" points="950.3486328 3.1891739 950.2179565 28.7319787 974.3344727 18.8785122 974.4650879 -6.6642902 950.3486328 3.1891739"/>
  <polygon class="st0" points="998.05896 28.7319787 973.9425049 38.5854428 949.8259888 28.7319787 973.9425049 18.8785122 998.05896 28.7319787"/>
  <polygon class="st0" points="973.9425049 38.5854428 974.0731201 64.1282494 949.956665 54.2747815 949.8259888 28.7319787 973.9425049 38.5854428"/>
  <polygon class="st0" points="974.2037964 38.5854428 974.0731201 64.1282494 998.1896362 54.2747815 998.3203125 28.7319787 974.2037964 38.5854428"/>
  <polygon class="st0" points="974.0731201 64.2527764 949.956665 74.1062424 925.8401489 64.2527764 949.956665 54.3993085 974.0731201 64.2527764"/>
  <polygon class="st0" points="949.956665 74.1062424 950.0872803 99.6490433 925.9708252 89.7955735 925.8401489 64.2527764 949.956665 74.1062424"/>
  <polygon class="st0" points="950.2179565 74.1062424 950.0872803 99.6490433 974.2037964 89.7955735 974.3344727 64.2527764 950.2179565 74.1062424"/>
  <polygon class="st0" points="1022.3061523 -6.6642902 998.1896362 3.1891739 974.0731201 -6.6642902 998.1896362 -16.5177543 1022.3061523 -6.6642902"/>
  <polygon class="st0" points="998.1896362 3.1891739 998.3203125 28.7319787 974.2037964 18.8785122 974.0731201 -6.6642902 998.1896362 3.1891739"/>
  <polygon class="st0" points="998.4509888 3.1891739 998.3203125 28.7319787 1022.4368286 18.8785122 1022.5674438 -6.6642902 998.4509888 3.1891739"/>
  <polygon class="st0" points="1046.3572998 28.7319787 1022.2407837 38.5854428 998.1243286 28.7319787 1022.2407837 18.8785122 1046.3572998 28.7319787"/>
  <polygon class="st0" points="1022.2407837 38.5854428 1022.37146 64.1282494 998.2549438 54.2747815 998.1243286 28.7319787 1022.2407837 38.5854428"/>
  <polygon class="st0" points="1022.5021362 38.5854428 1022.37146 64.1282494 1046.487915 54.2747815 1046.6186523 28.7319787 1022.5021362 38.5854428"/>
  <polygon class="st0" points="1022.37146 64.2527764 998.2549438 74.1062424 974.1384888 64.2527764 998.2549438 54.3993085 1022.37146 64.2527764"/>
  <polygon class="st0" points="998.2549438 74.1062424 998.3856201 99.6490433 974.269104 89.7955735 974.1384888 64.2527764 998.2549438 74.1062424"/>
  <polygon class="st0" points="998.5162964 74.1062424 998.3856201 99.6490433 1022.5021362 89.7955735 1022.6328125 64.2527764 998.5162964 74.1062424"/>
  <polygon class="st0" points="1070.6044922 -6.6642902 1046.487915 3.1891739 1022.37146 -6.6642902 1046.487915 -16.5177543 1070.6044922 -6.6642902"/>
  <polygon class="st0" points="1046.487915 3.1891739 1046.6186523 28.7319787 1022.5021362 18.8785122 1022.37146 -6.6642902 1046.487915 3.1891739"/>
  <polygon class="st0" points="1046.7492676 3.1891739 1046.6186523 28.7319787 1070.7351074 18.8785122 1070.8658447 -6.6642902 1046.7492676 3.1891739"/>
  <polygon class="st0" points="1094.4595947 28.7319787 1070.3431396 38.5854428 1046.2266846 28.7319787 1070.3431396 18.8785122 1094.4595947 28.7319787"/>
  <polygon class="st0" points="1070.3431396 38.5854428 1070.4737549 64.1282494 1046.3572998 54.2747815 1046.2266846 28.7319787 1070.3431396 38.5854428"/>
  <polygon class="st0" points="1070.6044922 38.5854428 1070.4737549 64.1282494 1094.590332 54.2747815 1094.7209473 28.7319787 1070.6044922 38.5854428"/>
  <polygon class="st0" points="1070.4737549 64.2527764 1046.3572998 74.1062424 1022.2407837 64.2527764 1046.3572998 54.3993085 1070.4737549 64.2527764"/>
  <polygon class="st0" points="1046.3572998 74.1062424 1046.487915 99.6490433 1022.37146 89.7955735 1022.2407837 64.2527764 1046.3572998 74.1062424"/>
  <polygon class="st0" points="1046.6186523 74.1062424 1046.487915 99.6490433 1070.6044922 89.7955735 1070.7351074 64.2527764 1046.6186523 74.1062424"/>
  <polygon class="st0" points="1118.7067871 -6.6642902 1094.590332 3.1891739 1070.4737549 -6.6642902 1094.590332 -16.5177543 1118.7067871 -6.6642902"/>
  <polygon class="st0" points="1094.590332 3.1891739 1094.7209473 28.7319787 1070.6044922 18.8785122 1070.4737549 -6.6642902 1094.590332 3.1891739"/>
  <polygon class="st0" points="1094.8516846 3.1891739 1094.7209473 28.7319787 1118.8375244 18.8785122 1118.9681396 -6.6642902 1094.8516846 3.1891739"/>
  <polygon class="st0" points="1142.5620117 28.7319787 1118.4455566 38.5854428 1094.3289795 28.7319787 1118.4455566 18.8785122 1142.5620117 28.7319787"/>
  <polygon class="st0" points="1118.4455566 38.5854428 1118.5761719 64.1282494 1094.4595947 54.2747815 1094.3289795 28.7319787 1118.4455566 38.5854428"/>
  <polygon class="st0" points="1118.7067871 38.5854428 1118.5761719 64.1282494 1142.692627 54.2747815 1142.8233643 28.7319787 1118.7067871 38.5854428"/>
  <polygon class="st0" points="1118.5761719 64.2527764 1094.4595947 74.1062424 1070.3431396 64.2527764 1094.4595947 54.3993085 1118.5761719 64.2527764"/>
  <polygon class="st0" points="1094.4595947 74.1062424 1094.590332 99.6490433 1070.4737549 89.7955735 1070.3431396 64.2527764 1094.4595947 74.1062424"/>
  <polygon class="st0" points="1094.7209473 74.1062424 1094.590332 99.6490433 1118.7067871 89.7955735 1118.8375244 64.2527764 1094.7209473 74.1062424"/>
  <polygon class="st0" points="1166.8092041 -6.6642902 1142.692627 3.1891739 1118.5761719 -6.6642902 1142.692627 -16.5177543 1166.8092041 -6.6642902"/>
  <polygon class="st0" points="1142.692627 3.1891739 1142.8233643 28.7319787 1118.7067871 18.8785122 1118.5761719 -6.6642902 1142.692627 3.1891739"/>
  <polygon class="st0" points="1142.9539795 3.1891739 1142.8233643 28.7319787 1166.9398193 18.8785122 1167.0704346 -6.6642902 1142.9539795 3.1891739"/>
  <polygon class="st0" points="1190.6643066 28.7319787 1166.5478516 38.5854428 1142.4313965 28.7319787 1166.5478516 18.8785122 1190.6643066 28.7319787"/>
  <polygon class="st0" points="1166.5478516 38.5854428 1166.6784668 64.1282494 1142.5620117 54.2747815 1142.4313965 28.7319787 1166.5478516 38.5854428"/>
  <polygon class="st0" points="1166.8092041 38.5854428 1166.6784668 64.1282494 1190.7950439 54.2747815 1190.9256592 28.7319787 1166.8092041 38.5854428"/>
  <polygon class="st0" points="1166.6784668 64.2527764 1142.5620117 74.1062424 1118.4455566 64.2527764 1142.5620117 54.3993085 1166.6784668 64.2527764"/>
  <polygon class="st0" points="1142.5620117 74.1062424 1142.692627 99.6490433 1118.5761719 89.7955735 1118.4455566 64.2527764 1142.5620117 74.1062424"/>
  <polygon class="st0" points="1142.8233643 74.1062424 1142.692627 99.6490433 1166.8092041 89.7955735 1166.9398193 64.2527764 1142.8233643 74.1062424"/>
  <polygon class="st0" points="1214.911499 -6.6642902 1190.7950439 3.1891739 1166.6784668 -6.6642902 1190.7950439 -16.5177543 1214.911499 -6.6642902"/>
  <polygon class="st0" points="1190.7950439 3.1891739 1190.9256592 28.7319787 1166.8092041 18.8785122 1166.6784668 -6.6642902 1190.7950439 3.1891739"/>
  <polygon class="st0" points="1191.0562744 3.1891739 1190.9256592 28.7319787 1215.0421143 18.8785122 1215.1728516 -6.6642902 1191.0562744 3.1891739"/>
</svg>