<?xml version="1.0" encoding="UTF-8"?>
<svg id="_x31_0" xmlns="http://www.w3.org/2000/svg" version="1.1" viewBox="0 0 512 512">
  <!-- Generator: Adobe Illustrator 29.5.0, SVG Export Plug-In . SVG Version: 2.1.0 Build 137)  -->
  <defs>
    <style>
      .st0 {
        fill: #ff9735;
      }
    </style>
  </defs>
  <path class="st0" d="M39.8159447,389.7650146l47.5970192-8.8139954,8.8099976-47.5929871,47.5969849-8.8139954-6.1579895-58.4599915,24.7539978-24.7539978,24.2170105-24.2180023c-5.0339966-14.6940002-7.8859863-29.9620056-8.625-45.3110046-.0109863-.1900024-.0029907-.3849945-.0109863-.5749969-.1520081-3.4149933-.2250061-6.8339996-.1669922-10.25.0339966-2.0749969.1820068-4.1349945.2969971-6.2019958.0840149-1.5769958.1180115-3.1569977.2510071-4.7330017.2290039-2.7460022.5859985-5.4720001.9519958-8.1940002.1300049-.9559937.2099915-1.9149933.3540039-2.8670044.4140015-2.7259979.9549866-5.4259949,1.5109863-8.1260071.2059937-1.0019989.3659973-2.0140076.5899963-3.0159988.506012-2.25,1.1270142-4.4779968,1.7330017-6.7050018.3989868-1.4860001.7539978-2.9820023,1.1950073-4.4589996.4419861-1.4540024.9670105-2.8860016,1.446991-4.3330002.7460022-2.2580032,1.4809875-4.5199966,2.3259888-6.7509995.1560059-.4079971.3420105-.8069992.5020142-1.2149963,7.9890137-20.5270004,20.2080078-39.7900009,36.7860107-56.3650017,63.9960022-64,167.7559814-64.0230026,231.7780151,0,64,63.9989967,63.9780273,167.7590065-.0220032,231.7590065-45.7380066,45.7380066-111.7789917,58.7799988-169.1040039,39.1470032l-24.2170105,24.2170105-168.8690186,168.8669434-87.2799988-14.5150146-1.598999-74.3640137s33.3549805-33.355957,33.3549767-33.355957ZM409.6659546,155.4850006c16.4599915-16.4609985,16.4599915-43.1450043,0-59.6060028-16.4580078-16.4609985-43.1459961-16.4609985-59.6060181,0-16.4570007,16.4570007-16.4570007,43.1450043,0,59.602005,16.460022,16.4609985,43.1480103,16.4609985,59.6060181.0039978ZM234.6069641,329.5580139c-7.6579895-4.4890137-15.0140076-9.6749878-22.0090027-15.5130005l-103.0549927,103.0559998-59.2600098,59.3850098,32.1260071,5.322998,121.3429871-121.3440247,30.855011-30.9069824Z"/>
</svg>