<?xml version="1.0" encoding="UTF-8"?>
<svg id="_x31_0" xmlns="http://www.w3.org/2000/svg" version="1.1" viewBox="0 0 511.9967699 397.9411112">
  <!-- Generator: Adobe Illustrator 29.5.0, SVG Export Plug-In . SVG Version: 2.1.0 Build 137)  -->
  <defs>
    <style>
      .st0 {
        fill: #1b9cc9;
      }
    </style>
  </defs>
  <path class="st0" d="M308.9430285,180.2872523c-.1600037-.8560028-.2810059-1.7149963-.4570007-2.5659943-.1099854-.5079956-.2539978-1.0039978-.3670044-1.5079956-1.0580139-4.75-2.3710022-9.4649963-4.0469971-14.1060028l-.0580139.0540009c-.0190125-.0540009-.0350037-.1130066-.0539856-.1679993l-71.6990051,71.7000122c-.6569977.7619934-1.3130035,1.4689941-2.0200043,2.1749878l-81.2700043,81.269989c-18.7460022,18.7460022-49.4179993,18.7460022-68.1600037,0-18.7460022-18.7420044-18.7460022-49.4179993,0-68.1600037l81.269989-81.269989c.5740051-.5780029,1.2030029-1.1560059,1.8090057-1.7070007l50.5309906-50.5310059,21.4530029-21.3589935c-.022995-.0079956-.0460052-.0119934-.0700073-.0240021l.1260071-.125c-40.7659912-14.9689941-88.375-6.1100006-121.0390015,26.5549927l-81.2699966,81.269989c-44.8279991,44.8320007-44.8279991,117.7109985,0,162.5429993,44.8050003,44.8009949,117.7110062,44.8280029,162.5399857,0l81.269989-81.2739868c27.8790283-27.8789978,38.3360291-66.6570129,31.5120544-102.7689972Z"/>
  <path class="st0" d="M478.3730211,33.6112498c-44.8009949-44.8009987-117.7070007-44.8289986-162.5390015,0l-81.269989,81.2740097c-27.8670044,27.8670044-38.3289948,66.625-31.5200043,102.7259827.1600037.8710022.2859955,1.7460022.4649963,2.6180115.1060028.4840088.2420044.9649963.352005,1.4490051,1.0579987,4.7659912,2.378006,9.5,4.0579987,14.1560059l.0579987-.0580139c.0189972.0580139.0350037.1180115.0579987.1719971l71.6999969-71.6990051c.6560059-.7619934,1.3080139-1.4689941,2.0190125-2.1759949l81.269989-81.269989c18.7420044-18.7460022,49.4179993-18.7460022,68.1600037,0,18.7460022,18.7420044,18.7460022,49.4179993,0,68.1600037l-81.269989,81.269989c-.5740051.5780029-1.2059937,1.1530151-1.8080139,1.7070007l-50.6530151,50.6489868-21.3320007,21.2420044c.0230103.0069885.0469971.0109863.0700073.0230103l-.1289978.125c40.769989,14.9689941,88.375,6.1099854,121.0429993-26.5539856l81.2659912-81.2740021c44.8340149-44.82901,44.8340149-117.7080078.0020142-162.5400162Z"/>
</svg>