<?xml version="1.0" encoding="UTF-8"?>
<svg id="_x31_0" xmlns="http://www.w3.org/2000/svg" version="1.1" viewBox="0 0 446.1600189 512">
  <!-- Generator: Adobe Illustrator 29.5.0, SVG Export Plug-In . SVG Version: 2.1.0 Build 137)  -->
  <defs>
    <style>
      .st0 {
        fill: #d43030;
      }
    </style>
  </defs>
  <path class="st0" d="M445.7580109,144.3200073v-.0820007c-4.6369934-71.7580032-58.5580139-130.397995-128.2380066-142-7.9219971-1.359-16-2.0780001-24.3200073-2.1600001-.3989868-.0780065-.9620056-.0780065-1.3599854-.0780065H78.3170013C35.1170044,0,0,35.1209984,0,78.3199997v355.2780228c0,43.2030029,35.1170044,78.4019775,78.3170013,78.4019775h289.5230103c43.1990051,0,78.3200073-35.1990051,78.3200073-78.4020081V154.3200073c-.0000305-3.3630066-.0820312-6.7220001-.4020081-10ZM401.7580109,144.3009949v.0189972c.4020081,3.2779999.4809875,6.6369934.4809875,10v279.2780304c0,19.0390015-15.4379883,34.4809875-34.3980103,34.4809875H78.3170013c-18.9580002,0-34.3990021-15.4419861-34.3990021-34.4809875V78.3199997c0-19.0419998,15.4420013-34.4020004,34.3990021-34.4020004h214.882019c8.3980103.0820007,16.4809875,1.1220016,24.3200073,3.0390015v48.1640015c0,27.1179962,22,49.1179962,49.1220093,49.1179962h25.2969971l9.8199768.0619965Z"/>
  <g>
    <path class="st0" d="M166.4407578,335.3639755c-2.6369934-2.6850128-5.894989-4.7985077-9.7605057-6.3404846-3.8789978-1.5345154-8.2275009-2.3069916-13.0664978-2.3069916h-36.4335022v93.9840088h18.3509903v-35.3789978h18.0810013c4.8389969,0,9.1875-.7679901,13.0664978-2.3085022,3.8670044-1.5359802,7.125-3.6509857,9.7605057-6.3344879,2.6490097-2.6835022,4.6650009-5.8049927,6.082489-9.375,1.4070053-3.5625,2.1090088-7.3244934,2.1090088-11.2845154,0-3.9614868-.7034912-7.7234802-2.1090088-11.2859802-1.4159775-3.5625458-3.4319916-6.6855469-6.0809784-9.3690491ZM125.5312424,343.0859909h17.1554947c4.2195053,0,7.5479965,1.1850128,9.9615097,3.5625,2.4269943,2.3730011,3.6329956,5.5019989,3.6329956,9.3690033,0,3.8730011-1.207489,6.9780121-3.6329956,9.3089905-2.4134903,2.332489-5.7420044,3.493515-9.9615097,3.493515h-17.1554947v-25.7340088Z"/>
    <path class="st0" d="M257.5312653,354.2355118c-.3510132-2.6835022-.9494934-5.144989-1.7819824-7.3889923-.8430176-2.2440033-1.957489-4.3769989-3.3630066-6.4049835-3.3510132-4.7519989-7.3109894-8.2260132-11.8829956-10.4295044-4.5809784-2.1974945-10.0769806-3.2985077-16.5-3.2985077h-33.9255066v93.9840088h33.9255066c6.4230194,0,11.9190216-1.1010132,16.5-3.2985077,4.5704956-2.1974945,8.5319824-5.6790161,11.8829956-10.4295044,1.4069824-2.0219879,2.519989-4.1609802,3.3630066-6.4049835.832489-2.2395172,1.431015-4.7054901,1.7819824-7.3889923.3510132-2.6835022.5729828-5.6309967.6555176-8.8410187.0944824-3.2160187.1289978-6.7559967.1289978-10.6289978s-.0345154-7.4129791-.1289978-10.6230011c-.0810242-3.2145538-.3030396-6.1620483-.6555176-8.8470154ZM208.4302521,343.0859909h13.9920044c6.068985,0,10.6409912,1.9350128,13.7220154,5.8065033.8789978,1.0545044,1.5585022,2.2440033,2.0505066,3.5625.4815216,1.3169861.855011,2.9295044,1.1130066,4.8164978.269989,1.8929901.4454956,4.1835022.5279846,6.8670044.0930176,2.6835022.1409912,5.8710022.1409912,9.5684967s-.0465088,6.8849945-.1409912,9.5669861c-.082489,2.6910095-.2579956,4.9754791-.5279846,6.8670044-.2579956,1.8929901-.6329956,3.4980011-1.1130066,4.8164978-.4920044,1.3169861-1.1715088,2.5079956-2.0505066,3.5625-3.0809784,3.8730011-7.6529846,5.8109894-13.7219925,5.8109894h-13.9920044v-61.2449799h-.0000229Z"/>
    <polygon class="st0" points="277.0657349 420.6989975 295.4182587 420.6989975 295.4182587 382.5494766 332.1562653 382.5494766 332.2672272 382.5554733 332.2672272 382.5494766 332.5072327 382.5494766 332.5072327 366.1830063 295.4182587 366.1830063 295.4182587 343.0859909 338.6077576 343.0859909 338.7352448 343.0859909 338.7352448 343.0859909 338.9767609 343.0859909 338.9767609 326.7149887 277.0657349 326.7149887 277.0657349 420.6989975"/>
  </g>
  <rect class="st0" x="121.4020081" y="242.1060028" width="207.3130035" height="10.9300079"/>
  <rect class="st0" x="121.4020081" y="271.0700073" width="207.3130035" height="10.9259949"/>
  <path class="st0" d="M151.4920044,214.0579987h82.2849884c5.5740051,0,8.5899963-7.1750031,4.9760132-11.8359985l-34.0660095-43.9019928c-2.6089935-3.3630066-7.3390045-3.3630066-9.9490051,0l-27.3589935,35.2619934c-2.7579956,3.5500031-7.8209991,3.3159943-10.2940063-.4850006l-11.7140045-18.0079956c-2.6060028-4.0070038-8.0270081-4.0070038-10.6329956,0l-17.9649963,27.6179962c-3.0899963,4.75,0,11.3509979,5.3159943,11.3509979h29.4030151Z"/>
  <circle class="st0" cx="152.8899994" cy="141.8220062" r="12.5220032"/>
  <rect class="st0" x="264.2150116" y="166.2149963" width="66.3980103" height="10.9259949"/>
  <rect class="st0" x="264.2150116" y="196.8509979" width="66.3980103" height="10.9259949"/>
</svg>