<?xml version="1.0" encoding="UTF-8"?>
<svg id="_x31_0" xmlns="http://www.w3.org/2000/svg" version="1.1" viewBox="0 0 446.1599884 512">
  <!-- Generator: Adobe Illustrator 29.5.1, SVG Export Plug-In . SVG Version: 2.1.0 Build 141)  -->
  <defs>
    <style>
      .st0 {
        fill: #ef584c;
      }
    </style>
  </defs>
  <path class="st0" d="M233.2740021,94.3899994c-1.0159912-.0350037-2.0119934-.2099991-3.0350037-.2139969v.0110016c-.0549927,0-.1059875-.0110016-.1600037-.0110016v95.9569931l83.0899963,47.9729919c8.1679993-14.1139984,12.8670044-30.4889984,12.8670044-47.9729919,0-17.4810028-4.6990051-33.8549957-12.8670044-47.9729919-16.0829773-27.8010025-45.742981-46.6330032-79.894989-47.7700043ZM300.7819977,203.2539978l-46.7149963-26.9689941v-53.9680023c15.9060059,5.6600037,29.644989,16.8350067,38.3399963,31.8589935,6.3049927,10.897995,9.6409912,23.3320007,9.6409912,35.9570007,0,3.7700043-.3599854,7.5119934-.9460144,11.2109985-.1209717.6370087-.1719666,1.2730103-.3199768,1.9100037Z"/>
  <path class="st0" d="M216.0859985,200.1410065v-95.9580002c-35.5149994,0-66.5,19.3089981-83.0940094,47.984993-8.1679993,14.1170044-12.8670044,30.4920044-12.8670044,47.9729919,0,17.4839935,4.6990051,33.8590088,12.8670044,47.9729919,16.5939941,28.6749878,47.5780029,47.9880066,83.0939941,47.9880066,34.8559875,0,65.2659912-18.6600037,82.0700073-46.4609985.2940063-.4810028.6570129-.9019928.9419861-1.3869934l-.0119934-.003006c.0280151-.0469971.0629883-.0899963.0899963-.1369934l-83.0899811-47.9729919Z"/>
  <path class="st0" d="M187.1800079,353.1640015c-1.7619934-1.7890015-3.9299927-3.1990051-6.5119934-4.2260132-2.5820007-1.0230103-5.4880066-1.5390015-8.7109985-1.5390015h-24.2880096v62.6560059h12.2299957v-23.5859985h12.0579987c3.2230072,0,6.1289978-.5119934,8.7109985-1.5390015,2.5820007-1.0230103,4.75-2.4339905,6.5119934-4.2219849,1.7579956-1.7900085,3.1089935-3.8710022,4.0460052-6.25.9380035-2.3739929,1.4100037-4.8819885,1.4100037-7.5230103s-.4730072-5.1489868-1.4100037-7.5230103c-.9369965-2.3769836-2.2879944-4.4589844-4.04599-6.2479858ZM180.4020081,366.9339905c0,2.5820007-.8049927,4.6520081-2.4179993,6.2070007-1.6170044,1.5539856-3.8280029,2.3280029-6.6439972,2.3280029h-11.4420013v-17.1560059h11.4420013c2.8159943,0,5.0269928.7890015,6.6439972,2.3739929,1.6139984,1.5830078,2.4179993,3.6680298,2.4179993,6.2470093Z"/>
  <path class="st0" d="M242.4420013,353.1640015c-1.7619934-1.7890015-3.9299927-3.1990051-6.5119934-4.2260132-2.5820007-1.0230103-5.4880066-1.5390015-8.7109985-1.5390015h-24.2880096v62.6560059h12.2299957v-23.5859985h12.0580139c3.2229919,0,6.1300049-.5119934,8.7109985-1.5390015,2.5820007-1.0230103,4.75-2.4339905,6.5119934-4.2219849,1.7579956-1.7900085,3.1090088-3.8710022,4.04599-6.25.9379883-2.3739929,1.4100037-4.8819885,1.4100037-7.5230103s-.4729919-5.1489868-1.4100037-7.5230103c-.9379883-2.3769836-2.2890015-4.4589844-4.04599-6.2479858ZM235.6640167,366.9339905c0,2.5820007-.8049927,4.6520081-2.4179993,6.2070007-1.6180115,1.5539856-3.82901,2.3280029-6.644989,2.3280029h-11.4410248v-17.1560059h11.4420013c2.8160095,0,5.0270081.7890015,6.644989,2.3739929,1.6119995,1.5830078,2.4170227,3.6680298,2.4170227,6.2470093Z"/>
  <polygon class="st0" points="253.6869965 347.3980103 253.6869965 347.3980103 253.5269928 347.3980103 253.5269928 358.3129883 269.8939972 358.3129883 269.8939972 410.0539856 282.1250153 410.0539856 282.1250153 358.3129883 298.4959869 358.3129883 298.4959869 347.3980103 253.8239899 347.3980103 253.6869965 347.3980103"/>
  <path class="st0" d="M445.7620087,144.3200073v-.0780029c-4.6409912-71.762001-58.5579834-130.4019928-128.2380066-142-7.9219971-1.363-16-2.082-24.3200073-2.1600001-.4029846-.0820043-.9620056-.0820043-1.3639832-.0820043H78.3199997C35.1210022,0,0,35.1209984,0,78.3199997v355.2820206c0,43.1990051,35.1210022,78.3979797,78.3199997,78.3979797h289.5199814c43.2030029,0,78.3200073-35.1990051,78.3200073-78.3980103V154.3200073c0-3.3590088-.0779724-6.7180023-.3979797-10ZM401.7620087,144.3009949v.0189972c.3980103,3.2819977.4809875,6.6410065.4809875,10v279.2819977c0,19.0390015-15.4419861,34.4809875-34.4020081,34.4809875H78.3199997c-18.9609985,0-34.3980026-15.4419861-34.3980026-34.4809875V78.3199997c0-19.038002,15.4380035-34.3979988,34.397995-34.3979988h214.8829956c8.3980103.0779991,16.4769897,1.118,24.3200073,3.0390015v48.1599998c0,27.1220016,22,49.1220093,49.1180115,49.1220093h25.6019897l9.5190125.0579834Z"/>
</svg>