<?xml version="1.0" encoding="UTF-8"?>
<svg id="_x31_0" xmlns="http://www.w3.org/2000/svg" version="1.1" viewBox="0 0 418.148983 512">
  <!-- Generator: Adobe Illustrator 29.5.1, SVG Export Plug-In . SVG Version: 2.1.0 Build 141)  -->
  <defs>
    <style>
      .st0 {
        fill: #af59d4;
      }
    </style>
  </defs>
  <path class="st0" d="M369.4720116,512H48.9170036c-26.9720001,0-48.9170036-21.875-48.9170036-48.7579994V48.6799927C0,21.8359985,21.9459953,0,48.9179955,0h320.5549927c26.8399963,0,48.6759949,21.8359985,48.6759949,48.6799927v414.5620079c-.0009766,26.8829994-21.8369751,48.7579994-48.6769714,48.7579994ZM302.8829918,44.1059875H48.9170036c-2.7689972,0-4.8119965,1.9609985-4.8119965,4.5740051v414.5620079c0,2.6090012,2.0429993,4.6520004,4.8119965,4.6520004h320.5550079c2.6130066,0,4.5700073-2.0429993,4.5700073-4.6520004V115.2690125l-42.9259949-42.9259949-28.2330322-28.23703Z"/>
  <polygon class="st0" points="191.0779991 271.1369934 95.1910057 271.1369934 95.1910057 249.7340088 95.1910057 249.6719971 95.1910057 249.6719971 95.1910057 249.5079956 243.3900108 249.5079956 300.3510094 249.5079956 323.1990013 249.5079956 323.1990013 271.1369934 247.9599876 271.1369934 191.0779991 271.1369934"/>
  <polygon class="st0" points="95.1910057 337.0780029 95.1910057 315.5980072 95.1910057 315.5310059 95.1910057 315.5310059 95.1910057 315.3710022 323.1990013 315.3710022 323.1990013 337.0780029 95.1910057 337.0780029"/>
  <polygon class="st0" points="95.1910057 403.0159988 95.1910057 381.5310059 95.1910057 381.4649963 95.1910057 381.4649963 95.1910057 381.3049927 323.1990013 381.3049927 323.1990013 403.0159988 95.1910057 403.0159988"/>
  <polygon class="st0" points="192.5499992 205.1990051 95.1910057 205.1990051 95.1910057 183.8009949 95.1910057 183.7340088 95.1910057 183.7340088 95.1910057 183.5780029 139.6679955 183.5780029 143.4210014 183.5780029 244.859005 183.5780029 301.7420006 183.5780029 323.1990013 183.5780029 323.1990013 205.1990051 249.3479881 205.1990051 192.5499992 205.1990051"/>
  <polygon class="st0" points="95.1910057 139.2579956 95.1910057 117.8630066 95.1910057 117.7969971 95.1910057 117.7969971 95.1910057 117.6369934 241.7529869 117.6369934 241.7529869 119.5159912 241.7529869 139.2579956 193.9329948 139.2579956 95.1910057 139.2579956"/>
</svg>